<svg width="49" height="50" viewBox="0 0 49 50" fill="none" xmlns="http://www.w3.org/2000/svg">
<path d="M25.0483 4.05168C26.6232 4.05178 28.1442 4.62548 29.3269 5.66553L29.6387 5.95915L31.0521 7.37253C31.44 7.7579 31.9466 8.00117 32.4898 8.06303L32.7632 8.07923H34.7881C36.4429 8.07913 38.035 8.71215 39.238 9.84847C40.4409 10.9848 41.1636 12.5383 41.2577 14.1904L41.2678 14.5589V16.5838C41.2678 17.1306 41.4541 17.6631 41.7902 18.0884L41.9725 18.2908L43.3838 19.7042C44.5537 20.8674 45.2358 22.433 45.2911 24.0818C45.3464 25.7306 44.7707 27.3384 43.6815 28.5774L43.3879 28.8892L41.9745 30.3026C41.5891 30.6905 41.3459 31.197 41.284 31.7403L41.2678 32.0136V34.0386C41.2679 35.6933 40.6349 37.2855 39.4986 38.4884C38.3622 39.6914 36.8087 40.414 35.1566 40.5081L34.7881 40.5183H32.7632C32.2172 40.5184 31.6872 40.7025 31.2587 41.0407L31.0562 41.2229L29.6428 42.6343C28.4796 43.8041 26.914 44.4862 25.2652 44.5415C23.6164 44.5969 22.0086 44.0212 20.7696 42.932L20.4578 42.6383L19.0444 41.225C18.6565 40.8396 18.15 40.5963 17.6067 40.5345L17.3334 40.5183H15.3085C13.6537 40.5184 12.0615 39.8853 10.8586 38.749C9.65562 37.6127 8.93298 36.0592 8.83887 34.4071L8.82874 34.0386V32.0136C8.82856 31.4677 8.64453 30.9377 8.30632 30.5091L8.12408 30.3067L6.71271 28.8933C5.54288 27.7301 4.86078 26.1645 4.80547 24.5157C4.75015 22.8669 5.32581 21.2591 6.41505 20.0201L6.70866 19.7083L8.12205 18.2949C8.50741 17.907 8.75069 17.4005 8.81254 16.8572L8.82874 16.5838V14.5589L8.83887 14.1904C8.92928 12.6017 9.6011 11.1019 10.7263 9.97674C11.8514 8.85158 13.3513 8.17977 14.9399 8.08935L15.3085 8.07923H17.3334C17.8793 8.07905 18.4093 7.89501 18.8379 7.5568L19.0404 7.37456L20.4538 5.9632C21.0558 5.35752 21.7717 4.87684 22.5602 4.5488C23.3487 4.22075 24.1943 4.05181 25.0483 4.05168Z" fill="#059CF8"/>
<path d="M25.0483 4.05168C26.6232 4.05178 28.1442 4.62548 29.3269 5.66553L29.6387 5.95915L31.0521 7.37253C31.44 7.7579 31.9466 8.00117 32.4898 8.06303L32.7632 8.07923H34.7881C36.4429 8.07913 38.035 8.71215 39.238 9.84847C40.4409 10.9848 41.1636 12.5383 41.2577 14.1904L41.2678 14.5589V16.5838C41.2678 17.1306 41.4541 17.6631 41.7902 18.0884L41.9725 18.2908L43.3838 19.7042C44.5537 20.8674 45.2358 22.433 45.2911 24.0818C45.3464 25.7306 44.7707 27.3384 43.6815 28.5774L43.3879 28.8892L41.9745 30.3026C41.5891 30.6905 41.3459 31.197 41.284 31.7403L41.2678 32.0136V34.0386C41.2679 35.6933 40.6349 37.2855 39.4986 38.4884C38.3622 39.6914 36.8087 40.414 35.1566 40.5081L34.7881 40.5183H32.7632C32.2172 40.5184 31.6872 40.7025 31.2587 41.0407L31.0562 41.2229L29.6428 42.6343C28.4796 43.8041 26.914 44.4862 25.2652 44.5415C23.6164 44.5969 22.0086 44.0212 20.7696 42.932L20.4578 42.6383L19.0444 41.225C18.6565 40.8396 18.15 40.5963 17.6067 40.5345L17.3334 40.5183H15.3085C13.6537 40.5184 12.0615 39.8853 10.8586 38.749C9.65562 37.6127 8.93298 36.0592 8.83887 34.4071L8.82874 34.0386V32.0136C8.82856 31.4677 8.64453 30.9377 8.30632 30.5091L8.12408 30.3067L6.71271 28.8933C5.54288 27.7301 4.86078 26.1645 4.80547 24.5157C4.75015 22.8669 5.32581 21.2591 6.41505 20.0201L6.70866 19.7083L8.12205 18.2949C8.50741 17.907 8.75069 17.4005 8.81254 16.8572L8.82874 16.5838V14.5589L8.83887 14.1904C8.92928 12.6017 9.6011 11.1019 10.7263 9.97674C11.8514 8.85158 13.3513 8.17977 14.9399 8.08935L15.3085 8.07923H17.3334C17.8793 8.07905 18.4093 7.89501 18.8379 7.5568L19.0404 7.37456L20.4538 5.9632C21.0558 5.35752 21.7717 4.87684 22.5602 4.5488C23.3487 4.22075 24.1943 4.05181 25.0483 4.05168Z" fill="url(#paint0_linear_2_184)" fill-opacity="0.2"/>
<defs>
<linearGradient id="paint0_linear_2_184" x1="25.0483" y1="4.05168" x2="25.0483" y2="44.5452" gradientUnits="userSpaceOnUse">
<stop stop-color="#2D3192"/>
<stop offset="1" stop-color="#2D3192" stop-opacity="0"/>
</linearGradient>
</defs>
</svg>
