<svg width="49" height="50" viewBox="0 0 49 50" fill="none" xmlns="http://www.w3.org/2000/svg">
<path d="M24.9287 4.05168C26.5037 4.05178 28.0247 4.62548 29.2073 5.66553L29.5192 5.95915L30.9326 7.37253C31.3205 7.7579 31.827 8.00117 32.3703 8.06303L32.6436 8.07923H34.6685C36.3233 8.07913 37.9154 8.71215 39.1184 9.84847C40.3214 10.9848 41.044 12.5383 41.1381 14.1904L41.1482 14.5589V16.5838C41.1482 17.1306 41.3345 17.6631 41.6707 18.0884L41.8529 18.2908L43.2643 19.7042C44.4341 20.8674 45.1162 22.433 45.1715 24.0818C45.2268 25.7306 44.6512 27.3384 43.5619 28.5774L43.2683 28.8892L41.8549 30.3026C41.4696 30.6905 41.2263 31.197 41.1644 31.7403L41.1482 32.0136V34.0386C41.1483 35.6933 40.5153 37.2855 39.379 38.4884C38.2427 39.6914 36.6892 40.414 35.0371 40.5081L34.6685 40.5183H32.6436C32.0977 40.5184 31.5677 40.7025 31.1391 41.0407L30.9366 41.2229L29.5232 42.6343C28.36 43.8041 26.7944 44.4862 25.1456 44.5415C23.4969 44.5969 21.8891 44.0212 20.6501 42.932L20.3382 42.6383L18.9248 41.225C18.537 40.8396 18.0304 40.5963 17.4872 40.5345L17.2138 40.5183H15.1889C13.5341 40.5184 11.942 39.8853 10.739 38.749C9.53605 37.6127 8.81342 36.0592 8.7193 34.4071L8.70918 34.0386V32.0136C8.709 31.4677 8.52496 30.9377 8.18675 30.5091L8.00451 30.3067L6.59314 28.8933C5.42332 27.7301 4.74121 26.1645 4.6859 24.5157C4.63059 22.8669 5.20624 21.2591 6.29548 20.0201L6.58909 19.7083L8.00248 18.2949C8.38785 17.907 8.63112 17.4005 8.69298 16.8572L8.70918 16.5838V14.5589L8.7193 14.1904C8.80972 12.6017 9.48153 11.1019 10.6067 9.97674C11.7319 8.85158 13.2317 8.17977 14.8204 8.08935L15.1889 8.07923H17.2138C17.7598 8.07905 18.2897 7.89501 18.7183 7.5568L18.9208 7.37456L20.3342 5.9632C20.9363 5.35752 21.6521 4.87684 22.4406 4.5488C23.2291 4.22075 24.0747 4.05181 24.9287 4.05168Z" fill="#059CF8"/>
<path d="M24.9287 4.05168C26.5037 4.05178 28.0247 4.62548 29.2073 5.66553L29.5192 5.95915L30.9326 7.37253C31.3205 7.7579 31.827 8.00117 32.3703 8.06303L32.6436 8.07923H34.6685C36.3233 8.07913 37.9154 8.71215 39.1184 9.84847C40.3214 10.9848 41.044 12.5383 41.1381 14.1904L41.1482 14.5589V16.5838C41.1482 17.1306 41.3345 17.6631 41.6707 18.0884L41.8529 18.2908L43.2643 19.7042C44.4341 20.8674 45.1162 22.433 45.1715 24.0818C45.2268 25.7306 44.6512 27.3384 43.5619 28.5774L43.2683 28.8892L41.8549 30.3026C41.4696 30.6905 41.2263 31.197 41.1644 31.7403L41.1482 32.0136V34.0386C41.1483 35.6933 40.5153 37.2855 39.379 38.4884C38.2427 39.6914 36.6892 40.414 35.0371 40.5081L34.6685 40.5183H32.6436C32.0977 40.5184 31.5677 40.7025 31.1391 41.0407L30.9366 41.2229L29.5232 42.6343C28.36 43.8041 26.7944 44.4862 25.1456 44.5415C23.4969 44.5969 21.8891 44.0212 20.6501 42.932L20.3382 42.6383L18.9248 41.225C18.537 40.8396 18.0304 40.5963 17.4872 40.5345L17.2138 40.5183H15.1889C13.5341 40.5184 11.942 39.8853 10.739 38.749C9.53605 37.6127 8.81342 36.0592 8.7193 34.4071L8.70918 34.0386V32.0136C8.709 31.4677 8.52496 30.9377 8.18675 30.5091L8.00451 30.3067L6.59314 28.8933C5.42332 27.7301 4.74121 26.1645 4.6859 24.5157C4.63059 22.8669 5.20624 21.2591 6.29548 20.0201L6.58909 19.7083L8.00248 18.2949C8.38785 17.907 8.63112 17.4005 8.69298 16.8572L8.70918 16.5838V14.5589L8.7193 14.1904C8.80972 12.6017 9.48153 11.1019 10.6067 9.97674C11.7319 8.85158 13.2317 8.17977 14.8204 8.08935L15.1889 8.07923H17.2138C17.7598 8.07905 18.2897 7.89501 18.7183 7.5568L18.9208 7.37456L20.3342 5.9632C20.9363 5.35752 21.6521 4.87684 22.4406 4.5488C23.2291 4.22075 24.0747 4.05181 24.9287 4.05168Z" fill="url(#paint0_linear_2_54)" fill-opacity="0.2"/>
<defs>
<linearGradient id="paint0_linear_2_54" x1="24.9287" y1="4.05168" x2="24.9287" y2="44.5452" gradientUnits="userSpaceOnUse">
<stop stop-color="#2D3192"/>
<stop offset="1" stop-color="#2D3192" stop-opacity="0"/>
</linearGradient>
</defs>
</svg>
