<svg width="49" height="50" viewBox="0 0 49 50" fill="none" xmlns="http://www.w3.org/2000/svg">
<g clip-path="url(#clip0_2_381)">
<path d="M25.1189 4.05168C26.6938 4.05178 28.2148 4.62548 29.3975 5.66553L29.7094 5.95915L31.1228 7.37253C31.5106 7.7579 32.0172 8.00117 32.5604 8.06303L32.8338 8.07923H34.8587C36.5135 8.07913 38.1056 8.71215 39.3086 9.84847C40.5115 10.9848 41.2342 12.5383 41.3283 14.1904L41.3384 14.5589V16.5838C41.3384 17.1306 41.5247 17.6631 41.8608 18.0884L42.0431 18.2908L43.4545 19.7042C44.6243 20.8674 45.3064 22.433 45.3617 24.0818C45.417 25.7306 44.8414 27.3384 43.7521 28.5774L43.4585 28.8892L42.0451 30.3026C41.6598 30.6905 41.4165 31.197 41.3546 31.7403L41.3384 32.0136V34.0386C41.3385 35.6933 40.7055 37.2855 39.5692 38.4884C38.4329 39.6914 36.8794 40.414 35.2272 40.5081L34.8587 40.5183H32.8338C32.2878 40.5184 31.7579 40.7025 31.3293 41.0407L31.1268 41.2229L29.7134 42.6343C28.5502 43.8041 26.9846 44.4862 25.3358 44.5415C23.687 44.5969 22.0792 44.0212 20.8403 42.932L20.5284 42.6383L19.115 41.225C18.7271 40.8396 18.2206 40.5963 17.6773 40.5345L17.404 40.5183H15.3791C13.7243 40.5184 12.1322 39.8853 10.9292 38.749C9.72623 37.6127 9.0036 36.0592 8.90949 34.4071L8.89936 34.0386V32.0136C8.89918 31.4677 8.71515 30.9377 8.37693 30.5091L8.19469 30.3067L6.78333 28.8933C5.6135 27.7301 4.93139 26.1645 4.87608 24.5157C4.82077 22.8669 5.39642 21.2591 6.48567 20.0201L6.77928 19.7083L8.19267 18.2949C8.57803 17.907 8.82131 17.4005 8.88316 16.8572L8.89936 16.5838V14.5589L8.90949 14.1904C8.9999 12.6017 9.67171 11.1019 10.7969 9.97674C11.922 8.85158 13.4219 8.17977 15.0105 8.08935L15.3791 8.07923H17.404C17.9499 8.07905 18.4799 7.89501 18.9085 7.5568L19.111 7.37456L20.5244 5.9632C21.1265 5.35752 21.8423 4.87684 22.6308 4.5488C23.4193 4.22075 24.2649 4.05181 25.1189 4.05168Z" fill="#059CF8"/>
<path d="M25.1189 4.05168C26.6938 4.05178 28.2148 4.62548 29.3975 5.66553L29.7094 5.95915L31.1228 7.37253C31.5106 7.7579 32.0172 8.00117 32.5604 8.06303L32.8338 8.07923H34.8587C36.5135 8.07913 38.1056 8.71215 39.3086 9.84847C40.5115 10.9848 41.2342 12.5383 41.3283 14.1904L41.3384 14.5589V16.5838C41.3384 17.1306 41.5247 17.6631 41.8608 18.0884L42.0431 18.2908L43.4545 19.7042C44.6243 20.8674 45.3064 22.433 45.3617 24.0818C45.417 25.7306 44.8414 27.3384 43.7521 28.5774L43.4585 28.8892L42.0451 30.3026C41.6598 30.6905 41.4165 31.197 41.3546 31.7403L41.3384 32.0136V34.0386C41.3385 35.6933 40.7055 37.2855 39.5692 38.4884C38.4329 39.6914 36.8794 40.414 35.2272 40.5081L34.8587 40.5183H32.8338C32.2878 40.5184 31.7579 40.7025 31.3293 41.0407L31.1268 41.2229L29.7134 42.6343C28.5502 43.8041 26.9846 44.4862 25.3358 44.5415C23.687 44.5969 22.0792 44.0212 20.8403 42.932L20.5284 42.6383L19.115 41.225C18.7271 40.8396 18.2206 40.5963 17.6773 40.5345L17.404 40.5183H15.3791C13.7243 40.5184 12.1322 39.8853 10.9292 38.749C9.72623 37.6127 9.0036 36.0592 8.90949 34.4071L8.89936 34.0386V32.0136C8.89918 31.4677 8.71515 30.9377 8.37693 30.5091L8.19469 30.3067L6.78333 28.8933C5.6135 27.7301 4.93139 26.1645 4.87608 24.5157C4.82077 22.8669 5.39642 21.2591 6.48567 20.0201L6.77928 19.7083L8.19267 18.2949C8.57803 17.907 8.82131 17.4005 8.88316 16.8572L8.89936 16.5838V14.5589L8.90949 14.1904C8.9999 12.6017 9.67171 11.1019 10.7969 9.97674C11.922 8.85158 13.4219 8.17977 15.0105 8.08935L15.3791 8.07923H17.404C17.9499 8.07905 18.4799 7.89501 18.9085 7.5568L19.111 7.37456L20.5244 5.9632C21.1265 5.35752 21.8423 4.87684 22.6308 4.5488C23.4193 4.22075 24.2649 4.05181 25.1189 4.05168Z" fill="url(#paint0_linear_2_381)" fill-opacity="0.2"/>
</g>
<defs>
<linearGradient id="paint0_linear_2_381" x1="25.1189" y1="4.05168" x2="25.1189" y2="44.5452" gradientUnits="userSpaceOnUse">
<stop stop-color="#2D3192"/>
<stop offset="1" stop-color="#2D3192" stop-opacity="0"/>
</linearGradient>
<clipPath id="clip0_2_381">
<rect width="48.5978" height="48.5978" fill="white" transform="translate(0.337036 0.47831)"/>
</clipPath>
</defs>
</svg>
