<svg width="49" height="50" viewBox="0 0 49 50" fill="none" xmlns="http://www.w3.org/2000/svg">
<path d="M24.8091 4.05168C26.3841 4.05178 27.9051 4.62548 29.0878 5.66553L29.3996 5.95915L30.813 7.37253C31.2009 7.7579 31.7074 8.00117 32.2507 8.06303L32.524 8.07923H34.549C36.2038 8.07913 37.7959 8.71215 38.9988 9.84847C40.2018 10.9848 40.9244 12.5383 41.0185 14.1904L41.0287 14.5589V16.5838C41.0287 17.1306 41.215 17.6631 41.5511 18.0884L41.7333 18.2908L43.1447 19.7042C44.3145 20.8674 44.9966 22.433 45.052 24.0818C45.1073 25.7306 44.5316 27.3384 43.4424 28.5774L43.1488 28.8892L41.7354 30.3026C41.35 30.6905 41.1067 31.197 41.0449 31.7403L41.0287 32.0136V34.0386C41.0288 35.6933 40.3957 37.2855 39.2594 38.4884C38.1231 39.6914 36.5696 40.414 34.9175 40.5081L34.549 40.5183H32.524C31.9781 40.5184 31.4481 40.7025 31.0195 41.0407L30.817 41.2229L29.4037 42.6343C28.2405 43.8041 26.6749 44.4862 25.0261 44.5415C23.3773 44.5969 21.7695 44.0212 20.5305 42.932L20.2187 42.6383L18.8053 41.225C18.4174 40.8396 17.9109 40.5963 17.3676 40.5345L17.0942 40.5183H15.0693C13.4145 40.5184 11.8224 39.8853 10.6194 38.749C9.41648 37.6127 8.69385 36.0592 8.59973 34.4071L8.58961 34.0386V32.0136C8.58943 31.4677 8.4054 30.9377 8.06718 30.5091L7.88494 30.3067L6.47358 28.8933C5.30375 27.7301 4.62164 26.1645 4.56633 24.5157C4.51102 22.8669 5.08667 21.2591 6.17592 20.0201L6.46953 19.7083L7.88291 18.2949C8.26828 17.907 8.51155 17.4005 8.57341 16.8572L8.58961 16.5838V14.5589L8.59973 14.1904C8.69015 12.6017 9.36196 11.1019 10.4871 9.97674C11.6123 8.85158 13.1121 8.17977 14.7008 8.08935L15.0693 8.07923H17.0942C17.6402 8.07905 18.1702 7.89501 18.5987 7.5568L18.8012 7.37456L20.2146 5.9632C20.8167 5.35752 21.5326 4.87684 22.3211 4.5488C23.1096 4.22075 23.9551 4.05181 24.8091 4.05168Z" fill="#059CF8"/>
<path d="M24.8091 4.05168C26.3841 4.05178 27.9051 4.62548 29.0878 5.66553L29.3996 5.95915L30.813 7.37253C31.2009 7.7579 31.7074 8.00117 32.2507 8.06303L32.524 8.07923H34.549C36.2038 8.07913 37.7959 8.71215 38.9988 9.84847C40.2018 10.9848 40.9244 12.5383 41.0185 14.1904L41.0287 14.5589V16.5838C41.0287 17.1306 41.215 17.6631 41.5511 18.0884L41.7333 18.2908L43.1447 19.7042C44.3145 20.8674 44.9966 22.433 45.052 24.0818C45.1073 25.7306 44.5316 27.3384 43.4424 28.5774L43.1488 28.8892L41.7354 30.3026C41.35 30.6905 41.1067 31.197 41.0449 31.7403L41.0287 32.0136V34.0386C41.0288 35.6933 40.3957 37.2855 39.2594 38.4884C38.1231 39.6914 36.5696 40.414 34.9175 40.5081L34.549 40.5183H32.524C31.9781 40.5184 31.4481 40.7025 31.0195 41.0407L30.817 41.2229L29.4037 42.6343C28.2405 43.8041 26.6749 44.4862 25.0261 44.5415C23.3773 44.5969 21.7695 44.0212 20.5305 42.932L20.2187 42.6383L18.8053 41.225C18.4174 40.8396 17.9109 40.5963 17.3676 40.5345L17.0942 40.5183H15.0693C13.4145 40.5184 11.8224 39.8853 10.6194 38.749C9.41648 37.6127 8.69385 36.0592 8.59973 34.4071L8.58961 34.0386V32.0136C8.58943 31.4677 8.4054 30.9377 8.06718 30.5091L7.88494 30.3067L6.47358 28.8933C5.30375 27.7301 4.62164 26.1645 4.56633 24.5157C4.51102 22.8669 5.08667 21.2591 6.17592 20.0201L6.46953 19.7083L7.88291 18.2949C8.26828 17.907 8.51155 17.4005 8.57341 16.8572L8.58961 16.5838V14.5589L8.59973 14.1904C8.69015 12.6017 9.36196 11.1019 10.4871 9.97674C11.6123 8.85158 13.1121 8.17977 14.7008 8.08935L15.0693 8.07923H17.0942C17.6402 8.07905 18.1702 7.89501 18.5987 7.5568L18.8012 7.37456L20.2146 5.9632C20.8167 5.35752 21.5326 4.87684 22.3211 4.5488C23.1096 4.22075 23.9551 4.05181 24.8091 4.05168Z" fill="url(#paint0_linear_2_43)" fill-opacity="0.2"/>
<defs>
<linearGradient id="paint0_linear_2_43" x1="24.8091" y1="4.05168" x2="24.8091" y2="44.5452" gradientUnits="userSpaceOnUse">
<stop stop-color="#2D3192"/>
<stop offset="1" stop-color="#2D3192" stop-opacity="0"/>
</linearGradient>
</defs>
</svg>
