<svg width="30" height="29" viewBox="0 0 30 29" fill="none" xmlns="http://www.w3.org/2000/svg">
<path d="M21.7198 16.4482H20.7578L20.4169 16.1332C21.1779 15.2861 21.7341 14.2884 22.0456 13.2114C22.3572 12.1344 22.4164 11.0047 22.2191 9.90317C21.6468 6.65984 18.8217 4.06984 15.4121 3.67317C14.2134 3.52788 12.9959 3.64724 11.8528 4.02211C10.7096 4.39698 9.67113 5.01743 8.81677 5.83598C7.96241 6.65452 7.31482 7.64948 6.92355 8.7447C6.53227 9.83992 6.4077 11.0064 6.55934 12.1548C6.97336 15.4215 9.67668 18.1282 13.0619 18.6765C14.2116 18.8656 15.3907 18.8088 16.5149 18.5103C17.639 18.2118 18.6804 17.6789 19.5645 16.9498L19.8933 17.2765V18.1982L25.0685 23.1565C25.5678 23.6348 26.3836 23.6348 26.8829 23.1565C27.3822 22.6782 27.3822 21.8965 26.8829 21.4182L21.7198 16.4482ZM14.4136 16.4482C11.3815 16.4482 8.93387 14.1032 8.93387 11.1982C8.93387 8.29317 11.3815 5.94817 14.4136 5.94817C17.4457 5.94817 19.8933 8.29317 19.8933 11.1982C19.8933 14.1032 17.4457 16.4482 14.4136 16.4482Z" fill="#222222"/>
</svg>
