<svg width="49" height="50" viewBox="0 0 49 50" fill="none" xmlns="http://www.w3.org/2000/svg">
<path d="M25.1678 4.05168C26.7427 4.05178 28.2637 4.62548 29.4464 5.66553L29.7582 5.95915L31.1716 7.37253C31.5595 7.7579 32.066 8.00117 32.6093 8.06303L32.8827 8.07923H34.9076C36.5624 8.07913 38.1545 8.71215 39.3575 9.84847C40.5604 10.9848 41.2831 12.5383 41.3772 14.1904L41.3873 14.5589V16.5838C41.3873 17.1306 41.5736 17.6631 41.9097 18.0884L42.092 18.2908L43.5033 19.7042C44.6732 20.8674 45.3553 22.433 45.4106 24.0818C45.4659 25.7306 44.8902 27.3384 43.801 28.5774L43.5074 28.8892L42.094 30.3026C41.7086 30.6905 41.4654 31.197 41.4035 31.7403L41.3873 32.0136V34.0386C41.3874 35.6933 40.7544 37.2855 39.6181 38.4884C38.4817 39.6914 36.9282 40.414 35.2761 40.5081L34.9076 40.5183H32.8827C32.3367 40.5184 31.8067 40.7025 31.3782 41.0407L31.1757 41.2229L29.7623 42.6343C28.5991 43.8041 27.0335 44.4862 25.3847 44.5415C23.7359 44.5969 22.1281 44.0212 20.8891 42.932L20.5773 42.6383L19.1639 41.225C18.776 40.8396 18.2695 40.5963 17.7262 40.5345L17.4529 40.5183H15.4279C13.7732 40.5184 12.181 39.8853 10.9781 38.749C9.77511 37.6127 9.05248 36.0592 8.95836 34.4071L8.94824 34.0386V32.0136C8.94806 31.4677 8.76402 30.9377 8.42581 30.5091L8.24357 30.3067L6.8322 28.8933C5.66237 27.7301 4.98027 26.1645 4.92496 24.5157C4.86965 22.8669 5.4453 21.2591 6.53454 20.0201L6.82815 19.7083L8.24154 18.2949C8.62691 17.907 8.87018 17.4005 8.93204 16.8572L8.94824 16.5838V14.5589L8.95836 14.1904C9.04878 12.6017 9.72059 11.1019 10.8458 9.97674C11.9709 8.85158 13.4708 8.17977 15.0594 8.08935L15.4279 8.07923H17.4529C17.9988 8.07905 18.5288 7.89501 18.9574 7.5568L19.1599 7.37456L20.5732 5.9632C21.1753 5.35752 21.8912 4.87684 22.6797 4.5488C23.4682 4.22075 24.3138 4.05181 25.1678 4.05168Z" fill="#059CF8"/>
<path d="M25.1678 4.05168C26.7427 4.05178 28.2637 4.62548 29.4464 5.66553L29.7582 5.95915L31.1716 7.37253C31.5595 7.7579 32.066 8.00117 32.6093 8.06303L32.8827 8.07923H34.9076C36.5624 8.07913 38.1545 8.71215 39.3575 9.84847C40.5604 10.9848 41.2831 12.5383 41.3772 14.1904L41.3873 14.5589V16.5838C41.3873 17.1306 41.5736 17.6631 41.9097 18.0884L42.092 18.2908L43.5033 19.7042C44.6732 20.8674 45.3553 22.433 45.4106 24.0818C45.4659 25.7306 44.8902 27.3384 43.801 28.5774L43.5074 28.8892L42.094 30.3026C41.7086 30.6905 41.4654 31.197 41.4035 31.7403L41.3873 32.0136V34.0386C41.3874 35.6933 40.7544 37.2855 39.6181 38.4884C38.4817 39.6914 36.9282 40.414 35.2761 40.5081L34.9076 40.5183H32.8827C32.3367 40.5184 31.8067 40.7025 31.3782 41.0407L31.1757 41.2229L29.7623 42.6343C28.5991 43.8041 27.0335 44.4862 25.3847 44.5415C23.7359 44.5969 22.1281 44.0212 20.8891 42.932L20.5773 42.6383L19.1639 41.225C18.776 40.8396 18.2695 40.5963 17.7262 40.5345L17.4529 40.5183H15.4279C13.7732 40.5184 12.181 39.8853 10.9781 38.749C9.77511 37.6127 9.05248 36.0592 8.95836 34.4071L8.94824 34.0386V32.0136C8.94806 31.4677 8.76402 30.9377 8.42581 30.5091L8.24357 30.3067L6.8322 28.8933C5.66237 27.7301 4.98027 26.1645 4.92496 24.5157C4.86965 22.8669 5.4453 21.2591 6.53454 20.0201L6.82815 19.7083L8.24154 18.2949C8.62691 17.907 8.87018 17.4005 8.93204 16.8572L8.94824 16.5838V14.5589L8.95836 14.1904C9.04878 12.6017 9.72059 11.1019 10.8458 9.97674C11.9709 8.85158 13.4708 8.17977 15.0594 8.08935L15.4279 8.07923H17.4529C17.9988 8.07905 18.5288 7.89501 18.9574 7.5568L19.1599 7.37456L20.5732 5.9632C21.1753 5.35752 21.8912 4.87684 22.6797 4.5488C23.4682 4.22075 24.3138 4.05181 25.1678 4.05168Z" fill="url(#paint0_linear_2_81)" fill-opacity="0.2"/>
<defs>
<linearGradient id="paint0_linear_2_81" x1="25.1678" y1="4.05168" x2="25.1678" y2="44.5452" gradientUnits="userSpaceOnUse">
<stop stop-color="#2D3192"/>
<stop offset="1" stop-color="#2D3192" stop-opacity="0"/>
</linearGradient>
</defs>
</svg>
