<svg width="49" height="50" viewBox="0 0 49 50" fill="none" xmlns="http://www.w3.org/2000/svg">
<g clip-path="url(#clip0_2_174)">
<path d="M24.9993 4.05168C26.5742 4.05178 28.0952 4.62548 29.2779 5.66553L29.5897 5.95915L31.0031 7.37253C31.391 7.7579 31.8975 8.00117 32.4408 8.06303L32.7142 8.07923H34.7391C36.3939 8.07913 37.986 8.71215 39.189 9.84847C40.3919 10.9848 41.1146 12.5383 41.2087 14.1904L41.2188 14.5589V16.5838C41.2188 17.1306 41.4051 17.6631 41.7412 18.0884L41.9235 18.2908L43.3348 19.7042C44.5047 20.8674 45.1868 22.433 45.2421 24.0818C45.2974 25.7306 44.7217 27.3384 43.6325 28.5774L43.3389 28.8892L41.9255 30.3026C41.5401 30.6905 41.2968 31.197 41.235 31.7403L41.2188 32.0136V34.0386C41.2189 35.6933 40.5859 37.2855 39.4496 38.4884C38.3132 39.6914 36.7597 40.414 35.1076 40.5081L34.7391 40.5183H32.7142C32.1682 40.5184 31.6382 40.7025 31.2097 41.0407L31.0072 41.2229L29.5938 42.6343C28.4306 43.8041 26.865 44.4862 25.2162 44.5415C23.5674 44.5969 21.9596 44.0212 20.7206 42.932L20.4088 42.6383L18.9954 41.225C18.6075 40.8396 18.101 40.5963 17.5577 40.5345L17.2844 40.5183H15.2594C13.6047 40.5184 12.0125 39.8853 10.8096 38.749C9.60661 37.6127 8.88397 36.0592 8.78986 34.4071L8.77973 34.0386V32.0136C8.77955 31.4677 8.59552 30.9377 8.25731 30.5091L8.07506 30.3067L6.6637 28.8933C5.49387 27.7301 4.81176 26.1645 4.75645 24.5157C4.70114 22.8669 5.2768 21.2591 6.36604 20.0201L6.65965 19.7083L8.07304 18.2949C8.4584 17.907 8.70168 17.4005 8.76353 16.8572L8.77973 16.5838V14.5589L8.78986 14.1904C8.88027 12.6017 9.55209 11.1019 10.6773 9.97674C11.8024 8.85158 13.3023 8.17977 14.8909 8.08935L15.2594 8.07923H17.2844C17.8303 8.07905 18.3603 7.89501 18.7889 7.5568L18.9914 7.37456L20.4047 5.9632C21.0068 5.35752 21.7227 4.87684 22.5112 4.5488C23.2997 4.22075 24.1453 4.05181 24.9993 4.05168Z" fill="#059CF8"/>
<path d="M24.9993 4.05168C26.5742 4.05178 28.0952 4.62548 29.2779 5.66553L29.5897 5.95915L31.0031 7.37253C31.391 7.7579 31.8975 8.00117 32.4408 8.06303L32.7142 8.07923H34.7391C36.3939 8.07913 37.986 8.71215 39.189 9.84847C40.3919 10.9848 41.1146 12.5383 41.2087 14.1904L41.2188 14.5589V16.5838C41.2188 17.1306 41.4051 17.6631 41.7412 18.0884L41.9235 18.2908L43.3348 19.7042C44.5047 20.8674 45.1868 22.433 45.2421 24.0818C45.2974 25.7306 44.7217 27.3384 43.6325 28.5774L43.3389 28.8892L41.9255 30.3026C41.5401 30.6905 41.2968 31.197 41.235 31.7403L41.2188 32.0136V34.0386C41.2189 35.6933 40.5859 37.2855 39.4496 38.4884C38.3132 39.6914 36.7597 40.414 35.1076 40.5081L34.7391 40.5183H32.7142C32.1682 40.5184 31.6382 40.7025 31.2097 41.0407L31.0072 41.2229L29.5938 42.6343C28.4306 43.8041 26.865 44.4862 25.2162 44.5415C23.5674 44.5969 21.9596 44.0212 20.7206 42.932L20.4088 42.6383L18.9954 41.225C18.6075 40.8396 18.101 40.5963 17.5577 40.5345L17.2844 40.5183H15.2594C13.6047 40.5184 12.0125 39.8853 10.8096 38.749C9.60661 37.6127 8.88397 36.0592 8.78986 34.4071L8.77973 34.0386V32.0136C8.77955 31.4677 8.59552 30.9377 8.25731 30.5091L8.07506 30.3067L6.6637 28.8933C5.49387 27.7301 4.81176 26.1645 4.75645 24.5157C4.70114 22.8669 5.2768 21.2591 6.36604 20.0201L6.65965 19.7083L8.07304 18.2949C8.4584 17.907 8.70168 17.4005 8.76353 16.8572L8.77973 16.5838V14.5589L8.78986 14.1904C8.88027 12.6017 9.55209 11.1019 10.6773 9.97674C11.8024 8.85158 13.3023 8.17977 14.8909 8.08935L15.2594 8.07923H17.2844C17.8303 8.07905 18.3603 7.89501 18.7889 7.5568L18.9914 7.37456L20.4047 5.9632C21.0068 5.35752 21.7227 4.87684 22.5112 4.5488C23.2997 4.22075 24.1453 4.05181 24.9993 4.05168Z" fill="url(#paint0_linear_2_174)" fill-opacity="0.2"/>
</g>
<defs>
<linearGradient id="paint0_linear_2_174" x1="24.9993" y1="4.05168" x2="24.9993" y2="44.5452" gradientUnits="userSpaceOnUse">
<stop stop-color="#2D3192"/>
<stop offset="1" stop-color="#2D3192" stop-opacity="0"/>
</linearGradient>
<clipPath id="clip0_2_174">
<rect width="48.5978" height="48.5978" fill="white" transform="translate(0.217407 0.47831)"/>
</clipPath>
</defs>
</svg>
